<svg width="219" height="30" viewBox="0 0 219 30" fill="none" xmlns="http://www.w3.org/2000/svg">
<path d="M5.34707 7.79393V18.4881H10.6941C11.427 18.4881 12.1163 18.3514 12.7622 18.0782C13.408 17.7925 13.9732 17.4075 14.4576 16.9231C14.942 16.4387 15.3208 15.8735 15.5941 15.2277C15.8797 14.5694 16.0226 13.8738 16.0226 13.141C16.0226 12.4082 15.8797 11.7188 15.5941 11.073C15.3208 10.4147 14.942 9.84333 14.4576 9.35892C13.9732 8.87452 13.408 8.49569 12.7622 8.22244C12.1163 7.93676 11.427 7.79393 10.6941 7.79393H5.34707ZM5.34707 29.1636H0V2.44686H10.6941C11.6754 2.44686 12.6193 2.57728 13.526 2.83811C14.4327 3.08652 15.2773 3.44672 16.0598 3.9187C16.8548 4.37826 17.5751 4.93719 18.221 5.59548C18.8793 6.24135 19.4382 6.96175 19.8978 7.75667C20.3698 8.55158 20.73 9.4024 20.9784 10.3091C21.2392 11.2158 21.3696 12.1598 21.3696 13.141C21.3696 14.6066 21.0902 15.9915 20.5312 17.2957C19.9723 18.5874 19.2085 19.7177 18.2396 20.6865C17.2708 21.6553 16.1344 22.4192 14.8302 22.9781C13.5385 23.537 12.1598 23.8165 10.6941 23.8165H5.34707V29.1636Z" fill="#EE26C2"/>
<path d="M29.9771 3.78828C29.9771 4.26027 29.884 4.7012 29.6977 5.11108C29.5238 5.52096 29.2816 5.88116 28.971 6.19167C28.6605 6.48976 28.2941 6.73197 27.8718 6.91828C27.4619 7.09216 27.021 7.17911 26.549 7.17911C26.077 7.17911 25.6299 7.09216 25.2076 6.91828C24.7977 6.73197 24.4375 6.48976 24.127 6.19167C23.8289 5.88116 23.5867 5.52096 23.4004 5.11108C23.2265 4.7012 23.1396 4.26027 23.1396 3.78828C23.1396 3.32872 23.2265 2.894 23.4004 2.48412C23.5867 2.06182 23.8289 1.70162 24.127 1.40353C24.4375 1.09301 24.7977 0.850813 25.2076 0.676924C25.6299 0.490615 26.077 0.397461 26.549 0.397461C27.021 0.397461 27.4619 0.490615 27.8718 0.676924C28.2941 0.850813 28.6605 1.09301 28.971 1.40353C29.2816 1.70162 29.5238 2.06182 29.6977 2.48412C29.884 2.894 29.9771 3.32872 29.9771 3.78828ZM29.1015 29.1636H23.978V9.20988H29.1015V29.1636Z" fill="#EE26C2"/>
<path d="M38.0816 29.1636H32.9953V9.20988H34.225L35.9017 11.1475C36.7215 10.4023 37.6468 9.83091 38.6777 9.43345C39.7211 9.02357 40.8079 8.81863 41.9382 8.81863C43.1554 8.81863 44.3043 9.05462 45.3849 9.5266C46.4655 9.98616 47.4094 10.6258 48.2168 11.4456C49.0241 12.2529 49.6576 13.2031 50.1171 14.2961C50.5891 15.3767 50.8251 16.5318 50.8251 17.7615V29.1636H45.7389V17.7615C45.7389 17.2398 45.6395 16.7492 45.4408 16.2896C45.242 15.8176 44.9688 15.4078 44.621 15.06C44.2732 14.7122 43.8696 14.4389 43.41 14.2402C42.9504 14.0415 42.4598 13.9421 41.9382 13.9421C41.4041 13.9421 40.901 14.0415 40.429 14.2402C39.9571 14.4389 39.5472 14.7122 39.1994 15.06C38.8516 15.4078 38.5784 15.8176 38.3797 16.2896C38.1809 16.7492 38.0816 17.2398 38.0816 17.7615V29.1636Z" fill="#EE26C2"/>
<path d="M59.5816 29.1636H54.4581V1.27311H59.5816V18.8607L67.1644 9.24714H73.0145L66.4005 17.5565L73.0145 29.1636H67.1644L63.1215 21.9161L59.5816 26.6111V29.1636Z" fill="#EE26C2"/>
<path fill-rule="evenodd" clip-rule="evenodd" d="M99.4197 3.17544C98.9006 2.79762 98.3547 2.45298 97.7847 2.14465C94.9385 0.605109 91.6626 0.062922 88.4783 0.598077C88.4266 0.606524 88.375 0.615261 88.3233 0.624288C87.11 0.831736 85.9358 1.19239 84.8009 1.70624C83.6659 2.2201 82.6119 2.86827 81.6388 3.65074C80.6824 4.42567 79.8236 5.32734 79.0624 6.35577C78.3133 7.38877 77.7059 8.52357 77.2401 9.76017C76.7743 10.9968 76.482 12.2503 76.3634 13.5208C76.2615 14.7837 76.3119 16.0279 76.5148 17.2534C76.7344 18.4713 77.1011 19.6477 77.6149 20.7826C77.6933 20.9558 77.7747 21.1271 77.8591 21.2964C78.338 22.2722 78.9282 23.1973 79.6226 24.0521C81.7389 26.6572 84.693 28.4478 87.9815 29.119C91.27 29.7901 94.6896 29.3002 97.6574 27.7328C100.625 26.1654 102.958 23.6174 104.258 20.523L99.0572 18.3386C98.2085 20.3537 96.6287 22.0221 94.5941 22.9584L94.5761 22.8632C93.8332 23.2186 93.0281 23.4762 92.1745 23.6169C91.0708 23.7988 89.981 23.7695 88.9464 23.5587C85.5234 22.7917 82.7404 20.0201 82.1349 16.3464C81.3387 11.5153 84.6096 6.95343 89.4407 6.15719C92.2422 5.69547 94.9531 6.60137 96.8918 8.38605C97.8184 9.27254 98.5599 10.3634 99.0384 11.6029L104.96 9.39167L104.988 9.46655C105.828 8.53607 106.723 7.45571 107.642 6.31606C105.82 6.21157 104.092 6.14082 102.627 6.1777C103.027 4.66425 103.363 2.77951 103.684 0.772933C102.115 1.59986 100.638 2.40823 99.4197 3.17544Z" fill="black"/>
<path d="M114.835 29.0359H109.699V0.883864H114.835V9.77892C115.45 9.31505 116.084 8.98908 116.736 8.80103C117.388 8.60043 118.053 8.50014 118.73 8.50014C119.972 8.50014 121.139 8.73834 122.23 9.21475C123.321 9.67862 124.268 10.3243 125.071 11.1517C125.887 11.9666 126.526 12.9257 126.99 14.029C127.467 15.1197 127.705 16.2857 127.705 17.5268V29.0359H122.531V17.5268H122.569C122.569 17.0003 122.468 16.5051 122.268 16.0412C122.067 15.5648 121.791 15.1511 121.44 14.8C121.089 14.449 120.681 14.1732 120.217 13.9726C119.753 13.772 119.257 13.6717 118.73 13.6717C118.191 13.6717 117.683 13.772 117.206 13.9726C116.73 14.1732 116.316 14.449 115.964 14.8C115.613 15.1511 115.337 15.5648 115.137 16.0412C114.936 16.5051 114.835 17.0003 114.835 17.5268V29.0359Z" fill="black"/>
<path d="M137.433 3.42262C137.433 3.89903 137.339 4.3441 137.151 4.75782C136.975 5.17154 136.731 5.53512 136.417 5.84855C136.104 6.14944 135.734 6.39391 135.307 6.58196C134.893 6.75748 134.448 6.84524 133.971 6.84524C133.495 6.84524 133.043 6.75748 132.616 6.58196C132.202 6.39391 131.839 6.14944 131.525 5.84855C131.224 5.53512 130.979 5.17154 130.791 4.75782C130.616 4.3441 130.528 3.89903 130.528 3.42262C130.528 2.95875 130.616 2.51995 130.791 2.10623C130.979 1.67997 131.224 1.31639 131.525 1.0155C131.839 0.702076 132.202 0.457603 132.616 0.282084C133.043 0.0940281 133.495 0 133.971 0C134.448 0 134.893 0.0940281 135.307 0.282084C135.734 0.457603 136.104 0.702076 136.417 1.0155C136.731 1.31639 136.975 1.67997 137.151 2.10623C137.339 2.51995 137.433 2.95875 137.433 3.42262ZM136.549 29.0359H131.375V8.89505H136.549V29.0359Z" fill="black"/>
<path d="M158.093 12.9007L154.33 16.6806C154.142 16.154 153.885 15.6839 153.558 15.2702C153.232 14.8439 152.862 14.4866 152.448 14.1982C152.047 13.9099 151.608 13.6905 151.131 13.54C150.655 13.3896 150.165 13.3144 149.664 13.3144C148.961 13.3144 148.296 13.4586 147.669 13.7469C147.054 14.0353 146.515 14.4427 146.051 14.9693C145.599 15.4833 145.242 16.0976 144.978 16.8122C144.715 17.5268 144.583 18.3167 144.583 19.1817C144.583 19.8838 144.715 20.542 144.978 21.1563C145.242 21.7706 145.599 22.3097 146.051 22.7736C146.515 23.2375 147.054 23.601 147.669 23.8643C148.296 24.1276 148.961 24.2592 149.664 24.2592C150.165 24.2592 150.648 24.1903 151.112 24.0524C151.577 23.9145 152.009 23.7201 152.411 23.4694C152.825 23.2061 153.188 22.8927 153.502 22.5291C153.828 22.153 154.092 21.7393 154.292 21.288L158.055 25.0679C157.579 25.7449 157.027 26.3529 156.4 26.892C155.785 27.4311 155.114 27.8887 154.386 28.2648C153.671 28.6409 152.912 28.923 152.11 29.1111C151.319 29.3117 150.504 29.412 149.664 29.412C148.246 29.412 146.91 29.1487 145.656 28.6221C144.414 28.083 143.323 27.3496 142.382 26.4219C141.454 25.4941 140.72 24.4097 140.18 23.1685C139.641 21.9273 139.371 20.5984 139.371 19.1817C139.371 17.6397 139.641 16.1979 140.18 14.8564C140.72 13.515 141.454 12.349 142.382 11.3586C143.323 10.3556 144.414 9.56579 145.656 8.98908C146.91 8.41238 148.246 8.12402 149.664 8.12402C150.504 8.12402 151.326 8.23059 152.128 8.44372C152.944 8.65685 153.715 8.97028 154.443 9.384C155.183 9.78519 155.86 10.2804 156.475 10.8696C157.102 11.4589 157.642 12.1359 158.093 12.9007Z" fill="black"/>
<path d="M165.789 29.0359H160.614V0.883864H165.789V18.6364L173.447 8.93267H179.355L172.675 17.32L179.355 29.0359H173.447L169.364 21.7205L165.789 26.4595V29.0359Z" fill="black"/>
<path d="M188.763 24.1088C188.964 24.1715 189.164 24.2154 189.365 24.2404C189.566 24.253 189.766 24.2592 189.967 24.2592C190.469 24.2592 190.952 24.1903 191.416 24.0524C191.88 23.9145 192.313 23.7201 192.714 23.4694C193.128 23.2061 193.492 22.8927 193.806 22.5291C194.132 22.153 194.395 21.7393 194.596 21.288L198.359 25.0679C197.882 25.7449 197.33 26.3529 196.703 26.892C196.089 27.4311 195.417 27.8887 194.69 28.2648C193.975 28.6409 193.216 28.923 192.413 29.1111C191.623 29.3117 190.808 29.412 189.967 29.412C188.55 29.412 187.214 29.1487 185.959 28.6221C184.718 28.0956 183.626 27.3622 182.685 26.4219C181.757 25.4816 181.023 24.3658 180.484 23.0745C179.945 21.7706 179.675 20.3414 179.675 18.7868C179.675 17.1946 179.945 15.7403 180.484 14.4239C181.023 13.1075 181.757 11.9854 182.685 11.0577C183.626 10.13 184.718 9.40907 185.959 8.89505C187.214 8.38103 188.55 8.12402 189.967 8.12402C190.808 8.12402 191.629 8.22432 192.432 8.42491C193.235 8.62551 193.994 8.91386 194.709 9.28997C195.436 9.66609 196.114 10.13 196.741 10.6816C197.368 11.2207 197.92 11.8287 198.397 12.5057L188.763 24.1088ZM191.397 13.5212C191.159 13.4335 190.92 13.3771 190.682 13.352C190.456 13.3269 190.218 13.3144 189.967 13.3144C189.265 13.3144 188.6 13.446 187.973 13.7093C187.358 13.96 186.819 14.3236 186.354 14.8C185.903 15.2764 185.545 15.8531 185.282 16.5301C185.019 17.1946 184.887 17.9468 184.887 18.7868C184.887 18.9749 184.893 19.188 184.906 19.4262C184.931 19.6644 184.962 19.9089 185 20.1596C185.05 20.3978 185.106 20.6298 185.169 20.8554C185.232 21.0811 185.313 21.2817 185.414 21.4572L191.397 13.5212Z" fill="black"/>
<path d="M206.13 29.0359H200.993V8.89505H202.235L203.929 10.8508C204.756 10.0986 205.691 9.52191 206.732 9.12072C207.786 8.707 208.883 8.50014 210.025 8.50014C211.254 8.50014 212.414 8.73834 213.506 9.21475C214.597 9.67862 215.55 10.3243 216.366 11.1517C217.181 11.9666 217.821 12.9257 218.285 14.029C218.762 15.1197 219 16.2857 219 17.5268V29.0359H213.863V17.5268C213.863 17.0003 213.763 16.5051 213.562 16.0412C213.362 15.5648 213.086 15.1511 212.734 14.8C212.383 14.449 211.975 14.1732 211.511 13.9726C211.047 13.772 210.552 13.6717 210.025 13.6717C209.485 13.6717 208.977 13.772 208.501 13.9726C208.024 14.1732 207.61 14.449 207.259 14.8C206.908 15.1511 206.632 15.5648 206.431 16.0412C206.23 16.5051 206.13 17.0003 206.13 17.5268V29.0359Z" fill="black"/>
</svg>
